Coordinates
version=1
nRows=29
nColumns=22
inDegrees=yes

Units are S.I. units (second, meters, Newtons, ...)
If the header above contains a line with 'inDegrees', this indicates whether rotational values are in degrees (yes) or radians (no).

endheader
time	pelvis_tilt	pelvis_list	pelvis_rotation	pelvis_tx	pelvis_ty	pelvis_tz	hip_flexion_r	hip_adduction_r	hip_rotation_r	knee_angle_r	ankle_angle_r	subtalar_angle_r	hip_flexion_l	hip_adduction_l	hip_rotation_l	knee_angle_l	ankle_angle_l	subtalar_angle_l	lumbar_extension	lumbar_bending	lumbar_rotation
      0.97000000	     -5.22560097	      8.94364128	    -33.81075578	     -0.85312666	      0.87236225	     -0.42566089	     23.03442092	     -5.11096162	      5.40103108	    -47.11765192	     23.44468192	    -13.35779979	      1.64937055	      6.48374033	    -11.05181054	     -9.92289802	     22.98278637	      0.48664900	     -5.31493850	     -9.35786732	      8.78966250
      0.98000000	     -5.29076049	      9.12007280	    -33.97514721	     -0.85041545	      0.87087550	     -0.42363070	     24.81396733	     -4.78015509	      5.95320420	    -50.14709811	     22.89944740	    -13.22958327	      1.33274462	      6.59415475	    -11.36172718	     -9.54057938	     23.14577952	      1.01035568	     -5.40325722	     -9.65215005	      8.78865659
      0.99000000	     -5.36310712	      9.23186169	    -34.06573294	     -0.84734723	      0.86942324	     -0.42144894	     26.47857850	     -4.43669176	      6.29622365	    -53.02633360	     22.40944743	    -12.93795407	      0.98767502	      6.64757176	    -11.57101003	     -9.20844663	     23.35410891	      1.48482079	     -5.49665367	     -9.86376218	      8.70507782
      1.00000000	     -5.42226493	      9.29018478	    -34.09410340	     -0.84389636	      0.86805018	     -0.41912627	     28.01697960	     -4.11666997	      6.45724145	    -55.74087788	     22.02398208	    -12.63757772	      0.57233092	      6.67691199	    -11.65281653	     -8.86823970	     23.55612962	      1.81635667	     -5.60798739	    -10.01181367	      8.58479942
      1.01000000	     -5.50035708	      9.29712725	    -34.02094488	     -0.84015359	      0.86674888	     -0.41675579	     29.46629544	     -3.81813653	      6.43766888	    -58.29421803	     21.68238576	    -12.22030247	      0.19912833	      6.64403832	    -11.64143577	     -8.66487226	     23.80578958	      2.10605856	     -5.73392871	    -10.07961443	      8.36864699
      1.02000000	     -5.57616108	      9.23759698	    -33.87426460	     -0.83608633	      0.86558199	     -0.41426382	     30.79464920	     -3.54754015	      6.24939105	    -60.66704791	     21.42003265	    -11.81556796	     -0.21530533	      6.55688081	    -11.52043771	     -8.49986888	     24.05354300	      2.28735509	     -5.89067456	    -10.07150788	      8.09364794
      1.03000000	     -5.66773091	      9.11965807	    -33.66704289	     -0.83174020	      0.86452734	     -0.41165475	     32.03424879	     -3.29586179	      5.92535379	    -62.86107384	     21.21785760	    -11.43941586	     -0.64418701	      6.40706632	    -11.32914198	     -8.37807726	     24.30338945	      2.36850388	     -6.05663387	     -9.98385418	      7.77577784
      1.04000000	     -5.78756678	      8.95189067	    -33.42070619	     -0.82715408	      0.86355591	     -0.40891377	     33.21481994	     -3.05476995	      5.49663218	    -64.88079928	     21.06458734	    -11.12441236	     -1.07976566	      6.19476316	    -11.08567868	     -8.28001520	     24.54816593	      2.36744508	     -6.21102792	     -9.82163883	      7.43963615
      1.05000000	     -5.94865436	      8.73904970	    -33.14786987	     -0.82236700	      0.86263415	     -0.40603756	     34.35982378	     -2.81173349	      4.98696533	    -66.72862923	     20.93957681	    -10.88230899	     -1.50659096	      5.91492610	    -10.80797542	     -8.20219331	     24.79139008	      2.31766459	     -6.33821927	     -9.58237112	      7.09495800
      1.06000000	     -6.16479366	      8.49227666	    -32.85716805	     -0.81742318	      0.86171609	     -0.40303146	     35.49944563	     -2.55734637	      4.42213985	    -68.40894400	     20.81940971	    -10.65629588	     -1.89900172	      5.56683614	    -10.51814329	     -8.15241645	     25.03805922	      2.22782532	     -6.42123807	     -9.27225944	      6.73466355
      1.07000000	     -6.43099742	      8.21333529	    -32.56281593	     -0.81233739	      0.86077941	     -0.39990170	     36.63864491	     -2.28662124	      3.82763342	    -69.92718449	     20.69059333	    -10.43877945	     -2.25938884	      5.15557354	    -10.23901104	     -8.12956955	     25.29409240	      2.11543874	     -6.46560468	     -8.89287259	      6.35713120
      1.08000000	     -6.74735592	      7.93796137	    -32.29751782	     -0.80716255	      0.85975348	     -0.39662316	     37.81692394	     -1.99503093	      3.27049034	    -71.30105655	     20.53942604	    -10.07969073	     -2.57252408	      4.71628738	     -9.98664124	     -8.11948132	     25.57888427	      1.92919834	     -6.44976294	     -8.48452708	      5.97539199
      1.09000000	     -7.07153354	      7.59585994	    -32.01702180	     -0.80183124	      0.85875901	     -0.39322595	     38.93124406	     -1.69953389	      2.65172374	    -72.50051583	     20.37054684	     -9.93816594	     -2.90506127	      4.20135774	     -9.76140582	     -8.14827512	     25.83662814	      1.86455480	     -6.47352025	     -8.00054758	      5.54108409
      1.10000000	     -7.42051907	      7.27817063	    -31.77734530	     -0.79640630	      0.85762689	     -0.38967041	     40.08453989	     -1.40297096	      2.10113865	    -73.57105744	     20.19603347	     -9.71087471	     -3.19940658	      3.69124110	     -9.59141449	     -8.19824414	     26.12087381	      1.77368638	     -6.45260928	     -7.51831425	      5.07464021
      1.11000000	     -7.76177243	      6.99191147	    -31.60682833	     -0.79089448	      0.85635689	     -0.38589103	     41.25847135	     -1.10502463	      1.65089665	    -74.52448820	     20.00184340	     -9.28049592	     -3.50948181	      3.21550253	     -9.46496887	     -8.22482614	     26.40698478	      1.65874958	     -6.41534569	     -7.07339550	      4.61981121
      1.12000000	     -8.02869587	      6.65448825	    -31.49973976	     -0.78517329	      0.85511332	     -0.38183401	     42.31669445	     -0.79305062	      1.24078480	    -75.33460772	     19.77127214	     -9.16457120	     -3.98258760	      2.73929554	     -9.37149626	     -8.17392629	     26.60522642	      1.63876510	     -6.47147029	     -6.61364718	      4.16051934
      1.13000000	     -8.27808248	      6.32754157	    -31.36890856	     -0.77928685	      0.85374323	     -0.37760868	     43.34564123	     -0.52629113	      0.84460567	    -76.01719816	     19.61427563	     -8.81273025	     -4.43965294	      2.25917144	     -9.36579550	     -8.20338694	     26.85628839	      1.61521245	     -6.54963234	     -6.16625315	      3.55982497
      1.14000000	     -8.44733453	      5.96513310	    -31.30219813	     -0.77316143	      0.85236556	     -0.37304229	     44.26003326	     -0.23527140	      0.52681934	    -76.57472211	     19.40977756	     -8.41175842	     -5.09769181	      1.79820462	     -9.35140895	     -8.09085298	     27.02116173	      1.65155473	     -6.71189654	     -5.72922886	      2.98783901
      1.15000000	     -8.55059001	      5.55809716	    -31.24016499	     -0.76679488	      0.85098577	     -0.36822285	     45.05409221	      0.04718122	      0.22026648	    -76.99704716	     19.23215956	     -7.99027197	     -5.91016816	      1.32737885	     -9.34987226	     -7.89727922	     27.12877124	      1.76426347	     -6.96721219	     -5.27818824	      2.36430203
      1.16000000	     -8.61349358	      5.09641706	    -31.15246616	     -0.76021596	      0.84960815	     -0.36317023	     45.73384110	      0.33857871	     -0.09310242	    -77.27491981	     19.06531045	     -7.63010471	     -6.82596288	      0.81128511	     -9.32788916	     -7.68279870	     27.17984437	      1.93830985	     -7.29992401	     -4.78842873	      1.64668323
      1.17000000	     -8.64277053	      4.58634655	    -31.04305386	     -0.75342943	      0.84823366	     -0.35789042	     46.30636250	      0.62876202	     -0.42715944	    -77.41106156	     18.91090314	     -7.26600426	     -7.84610897	      0.25310984	     -9.29344844	     -7.42382981	     27.16829972	      2.19679408	     -7.69926310	     -4.26128730	      0.86755776
      1.18000000	     -8.65751115	      4.05256884	    -30.90661872	     -0.74648829	      0.84684409	     -0.35243343	     46.80335650	      0.90546682	     -0.78014135	    -77.40805538	     18.77597258	     -6.94702658	     -8.91512257	     -0.33773402	     -9.25341800	     -7.15290592	     27.09247106	      2.50121832	     -8.14136259	     -3.70627843	      0.02660069
      1.19000000	     -8.66505657	      3.50373414	    -30.75631469	     -0.73940485	      0.84544934	     -0.34675801	     47.22908693	      1.17570468	     -1.15373904	    -77.26783842	     18.65980869	     -6.66655921	    -10.01384818	     -0.95803574	     -9.21465108	     -6.88926579	     26.94997893	      2.83873694	     -8.60426693	     -3.13318236	     -0.85817516
      1.20000000	     -8.68012735	      2.95714613	    -30.63388296	     -0.73222157	      0.84404928	     -0.34082799	     47.60406926	      1.47039059	     -1.51586765	    -76.99198609	     18.54922580	     -6.36109692	    -11.11350122	     -1.59043671	     -9.24791535	     -6.64638945	     26.69303353	      3.28518432	     -9.06303770	     -2.55094492	     -1.72375136
      1.21000000	     -8.72942705	      2.43205679	    -30.47332611	     -0.72488742	      0.84262417	     -0.33473757	     47.94436910	      1.71643930	     -1.95148961	    -76.58476542	     18.49020835	     -6.20895041	    -12.13016860	     -2.24237003	     -9.25520017	     -6.49874311	     26.46739482	      3.56038492	     -9.47754658	     -1.95288811	     -2.65978396
      1.22000000	     -8.82278964	      1.91457516	    -30.34698987	     -0.71744087	      0.84121102	     -0.32834926	     48.23973281	      2.00538404	     -2.41304292	    -76.03949938	     18.44448239	     -6.09032024	    -13.07675795	     -2.91752563	     -9.35473298	     -6.43748649	     26.15018984	      3.84063545	     -9.83940026	     -1.33347010	     -3.55562928
      1.23000000	     -8.97776445	      1.41675816	    -30.25078606	     -0.70985133	      0.83979706	     -0.32165595	     48.49428637	      2.32916191	     -2.92465275	    -75.36178083	     18.42359778	     -6.02282850	    -13.91260876	     -3.61203152	     -9.54354762	     -6.49797813	     25.78478124	      4.09740590	    -10.12002648	     -0.69088404	     -4.42497771
      1.24000000	     -9.18652914	      0.92851353	    -30.19964836	     -0.70210353	      0.83842870	     -0.31463784	     48.67679166	      2.70582749	     -3.49280874	    -74.55423818	     18.43769752	     -6.03192745	    -14.64411341	     -4.32477565	     -9.85000945	     -6.69775532	     25.33150119	      4.38415922	    -10.33507862	     -0.01781353	     -5.24957835
      1.25000000	     -9.52359915	      0.47676849	    -30.15675588	     -0.69415245	      0.83701158	     -0.30731976	     48.85204203	      3.11442052	     -4.17804575	    -73.62449078	     18.40982029	     -6.08847479	    -15.19066570	     -5.07551282	    -10.14800924	     -7.02475170	     24.88717926	      4.48280591	    -10.38008499	      0.70882413	     -6.07167516
